HIERARCHY
ROOT Hips
{
	OFFSET 0.00 0.00 0.00
	CHANNELS 6 Xposition Yposition Zposition Yrotation Xrotation Zrotation
	JOINT Spine
	{
		OFFSET	0.0000	9.2263	1.5771
		CHANNELS 3 Xrotation Yrotation Zrotation
		JOINT Spine1
		{
			OFFSET	0.0000	16.2540	-0.1656
			CHANNELS 3 Xrotation Yrotation Zrotation
			JOINT Spine2
			{
				OFFSET	0.0000	13.6396	-1.2923
				CHANNELS 3 Xrotation Yrotation Zrotation
				JOINT Neck
				{
					OFFSET	0.0000	13.8774	-4.3542
					CHANNELS 3 Xrotation Yrotation Zrotation
					JOINT Neck1
					{
						OFFSET	0.0000	4.3400	0.9269
						CHANNELS 3 Xrotation Yrotation Zrotation
						JOINT Head
						{
							OFFSET	0.0000	4.0266	0.8585
							CHANNELS 3 Xrotation Yrotation Zrotation
							End Site
							{
								OFFSET 0.0000 23.0297 0.1231
							}
						}
					}
				}
				JOINT LeftShoulder
				{
					OFFSET	6.1442	10.1870	-3.7932
					CHANNELS 3 Zrotation Xrotation Yrotation
					JOINT LeftArm
					{
						OFFSET	12.3191	-1.1130	-1.7935
						CHANNELS 3 Zrotation Xrotation Yrotation
						JOINT LeftForeArm
						{
							OFFSET	27.6870	0.0000	0.0000
							CHANNELS 3 Xrotation Zrotation Yrotation
							JOINT LeftHand
							{
								OFFSET	27.8738	0.0000	0.0000
								CHANNELS 3 Zrotation Yrotation Xrotation
								JOINT LeftHandThumb1
								{
									OFFSET	2.3785	-1.0029	2.6209
									CHANNELS 3 Zrotation Xrotation Yrotation
									JOINT LeftHandThumb2
									{
										OFFSET	3.3624	-1.0029	2.8398
										CHANNELS 3 Zrotation Xrotation Yrotation
										JOINT LeftHandThumb3
										{
											OFFSET	4.5018	-1.3445	2.1783
											CHANNELS 3 Zrotation Xrotation Yrotation
											End Site
											{
												OFFSET 2.6000 -1.0000 1.0000
											}
										}
									}
								}
								JOINT LeftHandMiddle1
								{
									OFFSET	10.4639	0.6148	0.4298
									CHANNELS 3 Zrotation Xrotation Yrotation
									JOINT LeftHandMiddle2
									{
										OFFSET	5.7921	0.0000	0.0000
										CHANNELS 3 Zrotation Xrotation Yrotation
										JOINT LeftHandMiddle3
										{
											OFFSET	3.7132	0.0000	0.0000
											CHANNELS 3 Zrotation Xrotation Yrotation
											End Site
											{
												OFFSET 2.3000 0.0000 0.0000
											}
										}
									}
								}
								JOINT LeftHandIndex1
								{
									OFFSET	10.3945	0.6148	2.7055
									CHANNELS 3 Zrotation Xrotation Yrotation
									JOINT LeftHandIndex2
									{
										OFFSET	5.5493	0.0000	0.0000
										CHANNELS 3 Zrotation Xrotation Yrotation
										JOINT LeftHandIndex3
										{
											OFFSET	3.3911	0.0000	0.0000
											CHANNELS 3 Zrotation Xrotation Yrotation
											End Site
											{
												OFFSET 2.5000 0.0000 0.0000
											}
										}
									}
								}
								JOINT LeftHandRing1
								{
									OFFSET	10.3252	0.3211	-1.8755
									CHANNELS 3 Zrotation Xrotation Yrotation
									JOINT LeftHandRing2
									{
										OFFSET	5.4452	0.0000	0.0000
										CHANNELS 3 Zrotation Xrotation Yrotation
										JOINT LeftHandRing3
										{
											OFFSET	3.7132	0.0000	0.0000
											CHANNELS 3 Zrotation Xrotation Yrotation
											End Site
											{
												OFFSET 2.0000 0.0000 0.0000
											}
										}
									}
								}
								JOINT LeftHandPinky1
								{
									OFFSET	10.0130	-0.0783	-3.9671
									CHANNELS 3 Zrotation Xrotation Yrotation
									JOINT LeftHandPinky2
									{
										OFFSET	3.6763	0.0000	0.0000
										CHANNELS 3 Zrotation Xrotation Yrotation
										JOINT LeftHandPinky3
										{
											OFFSET	2.8113	0.0000	0.0000
											CHANNELS 3 Zrotation Xrotation Yrotation
											End Site
											{
												OFFSET 2.9000 0.0000 0.0000
											}
										}
									}
								}
							}
						}
					}
				}
				JOINT RightShoulder
				{
					OFFSET	-6.1402	10.1870	-3.7932
					CHANNELS 3 Zrotation Xrotation Yrotation
					JOINT RightArm
					{
						OFFSET	-12.3231	-1.1130	-1.7935
						CHANNELS 3 Zrotation Xrotation Yrotation
						JOINT RightForeArm
						{
							OFFSET	-27.6870	0.0000	0.0000
							CHANNELS 3 Xrotation Zrotation Yrotation
							JOINT RightHand
							{
								OFFSET	-27.8738	0.0000	0.0000
								CHANNELS 3 Zrotation Yrotation Xrotation
								JOINT RightHandThumb1
								{
									OFFSET	-2.5178	-0.9367	2.5137
									CHANNELS 3 Zrotation Xrotation Yrotation
									JOINT RightHandThumb2
									{
										OFFSET	-3.2638	-1.0870	2.9669
										CHANNELS 3 Zrotation Xrotation Yrotation
										JOINT RightHandThumb3
										{
											OFFSET	-4.4165	-1.3703	2.1350
											CHANNELS 3 Zrotation Xrotation Yrotation
											End Site
											{
												OFFSET -2.6000 -1.0000 1.0000
											}
										}
									}
								}
								JOINT RightHandIndex1
								{
									OFFSET	-10.4665	0.4896	2.7120
									CHANNELS 3 Zrotation Xrotation Yrotation
									JOINT RightHandIndex2
									{
										OFFSET	-5.3768	0.0000	0.0000
										CHANNELS 3 Zrotation Xrotation Yrotation
										JOINT RightHandIndex3
										{
											OFFSET	-3.3855	0.0000	0.0000
											CHANNELS 3 Zrotation Xrotation Yrotation
											End Site
											{
												OFFSET -2.6000 0.0000 0.0000
											}
										}
									}
								}
								JOINT RightHandMiddle1
								{
									OFFSET	-10.7596	0.4896	0.4278
									CHANNELS 3 Zrotation Xrotation Yrotation
									JOINT RightHandMiddle2
									{
										OFFSET	-5.6168	0.0000	0.0000
										CHANNELS 3 Zrotation Xrotation Yrotation
										JOINT RightHandMiddle3
										{
											OFFSET	-3.7364	0.0000	0.0000
											CHANNELS 3 Zrotation Xrotation Yrotation
											End Site
											{
												OFFSET -2.3000 0.0000 0.0000
											}
										}
									}
								}
								JOINT RightHandRing1
								{
									OFFSET	-10.4702	0.3879	-1.9363
									CHANNELS 3 Zrotation Xrotation Yrotation
									JOINT RightHandRing2
									{
										OFFSET	-5.4013	0.0000	0.0000
										CHANNELS 3 Zrotation Xrotation Yrotation
										JOINT RightHandRing3
										{
											OFFSET	-3.3916	0.0000	0.0000
											CHANNELS 3 Zrotation Xrotation Yrotation
											End Site
											{
												OFFSET -2.2000 0.0000 0.0000
											}
										}
									}
								}
								JOINT RightHandPinky1
								{
									OFFSET	-9.9715	-0.1191	-3.9540
									CHANNELS 3 Zrotation Xrotation Yrotation
									JOINT RightHandPinky2
									{
										OFFSET	-3.6528	0.0000	0.0000
										CHANNELS 3 Zrotation Xrotation Yrotation
										JOINT RightHandPinky3
										{
											OFFSET	-2.7820	0.0000	0.0000
											CHANNELS 3 Zrotation Xrotation Yrotation
											End Site
											{
												OFFSET -2.9000 0.0000 0.0000
											}
										}
									}
								}
							}
						}
					}
				}
			}
		}
	}
	JOINT LeftUpLeg
	{
		OFFSET	9.6338	-3.2733	0.0000
		CHANNELS 3 Xrotation Yrotation Zrotation
		JOINT LeftLeg
		{
			OFFSET	0.0000	-41.7300	-1.7300
			CHANNELS 3 Xrotation Yrotation Zrotation
			JOINT LeftFoot
			{
				OFFSET	0.0126	-39.1900	-0.8477
				CHANNELS 3 Xrotation Yrotation Zrotation
				JOINT LeftToeBase
				{
					OFFSET	-0.1833	-12.1931	8.2823
					CHANNELS 3 Xrotation Yrotation Zrotation
					End Site
					{
						OFFSET 0.0000 0.0000 10.1681
					}
				}
			}
		}
	}
	JOINT RightUpLeg
	{
		OFFSET	-9.6338	-3.2733	0.0000
		CHANNELS 3 Xrotation Yrotation Zrotation
		JOINT RightLeg
		{
			OFFSET	0.0000	-41.7300	-1.7300
			CHANNELS 3 Xrotation Yrotation Zrotation
			JOINT RightFoot
			{
				OFFSET	0.0126	-39.1900	-0.8477
				CHANNELS 3 Xrotation Yrotation Zrotation
				JOINT RightToeBase
				{
					OFFSET	-0.1833	-12.1931	8.2823
					CHANNELS 3 Xrotation Yrotation Zrotation
					End Site
					{
						OFFSET 0.0032 0.0000 10.1681
					}
				}
			}
		}
	}
}
MOTION
Frames: 4
Frame Time: 0.0333333
-1.3070 95.2128 0.0144 -0.0443 -0.3803 -1.1663 -0.0862 -0.2571 0.0922 -0.4197 -2.0668 0.0104 -0.4238 -2.0606 0.0120 -1.6504 1.6422 -1.2921 -0.0000 0.0000 -0.0000 9.2860 -0.2558 2.2811 1.4198 -0.7340 12.0945 -70.0768 18.9595 0.3606 -0.1558 -0.0437 -31.3008 -13.5795 17.4987 14.3790 -1.6649 -7.7067 18.5725 1.3188 2.7233 0.9888 6.4516 -3.6147 -1.9153 -23.9681 0.8964 -3.0349 -19.3309 -0.0572 0.3361 -15.0421 -0.0348 0.2635 -17.3849 0.6925 -3.7310 -31.0296 -0.1453 0.5233 -12.5542 -0.0243 0.2207 -30.3500 1.0626 -4.0678 -14.2341 -0.0312 0.2496 -11.1276 -0.0191 0.1959 -39.6524 1.2688 1.0060 -16.3568 1.1082 -3.6356 -7.7047 -0.0092 0.1361 -5.6965 0.1935 -2.5304 77.0398 21.5679 2.0969 -0.1374 0.0333 27.2535 2.5057 -16.1280 4.6802 3.0448 10.1145 -31.9025 -0.1212 1.9026 15.2409 -6.2939 -4.6377 4.7068 6.3652 0.2987 -1.6618 36.8801 -0.4572 -1.3711 9.7076 -0.0327 -0.3852 15.0297 0.5650 -3.2347 25.8530 -0.2286 -0.9962 6.2241 -1.8650 -0.2578 25.0070 0.7571 -0.5463 17.6933 -0.1081 -0.6943 8.4262 -2.1592 -0.3467 34.8542 0.8928 -2.9086 14.9757 -0.0776 -0.5903 7.2165 -0.0181 -0.2870 -10.3089 2.8793 3.5022 21.8053 9.5280 0.7499 -10.5263 3.1325 -4.3037 -0.0498 -0.0000 -0.0000 -10.3184 -12.5088 -5.3424 16.9899 -5.0877 -0.7796 -5.4759 -4.3441 5.4143 -0.1142 0.0000 0.0000 
-0.9258 95.1888 -0.0364 -0.2854 -0.4545 -1.2634 -0.0437 -0.2403 0.0777 -0.3531 -2.0459 -0.0133 -0.3566 -2.0400 -0.0104 -1.6288 1.5833 -1.2151 -0.0000 0.0000 -0.0000 9.3729 -0.2887 2.3894 1.3004 -0.7410 12.0650 -69.8489 19.2418 0.0505 -0.1552 -0.0433 -31.1516 -13.6860 17.6064 14.1882 -1.6615 -7.7054 18.5867 1.3132 2.6976 0.9726 6.4510 -3.6213 -1.9315 -24.1176 0.9008 -3.0013 -19.4478 -0.0579 0.3380 -14.9907 -0.0346 0.2626 -17.5458 0.6980 -3.6498 -31.1062 -0.1460 0.5245 -12.6896 -0.0248 0.2230 -30.4378 1.0647 -4.0951 -14.3312 -0.0316 0.2513 -11.1036 -0.0190 0.1955 -39.9835 1.2744 0.9429 -16.5598 1.1211 -3.6281 -7.7055 -0.0092 0.1361 -5.5410 0.2070 -2.3610 76.9664 21.3751 2.2692 -0.1371 0.0331 27.1978 2.4996 -16.0699 4.5917 3.0217 10.3301 -32.0936 -0.0054 1.6599 15.4443 -6.2922 -4.6879 4.8321 6.3576 0.2992 -1.7572 37.0779 -0.4619 -1.3774 9.6561 -0.0324 -0.3832 15.5581 0.5796 -3.3696 25.7814 -0.2274 -0.9936 6.0778 -1.9233 -0.2523 25.4266 0.7650 -0.6957 17.5410 -0.1062 -0.6885 8.3194 -2.2266 -0.3429 35.4197 0.8981 -3.0846 15.0295 -0.0781 -0.5924 7.0073 -0.0171 -0.2787 -10.4073 2.7490 3.3465 22.2234 9.5095 0.6672 -10.7994 3.4933 -4.0270 -0.0665 -0.0000 -0.0000 -10.2758 -12.6662 -5.4924 16.7682 -4.9501 -0.8337 -5.2029 -4.1133 5.6344 -0.2383 0.0000 0.0000 
-0.5338 95.1507 -0.0964 -0.5302 -0.5459 -1.3510 0.0110 -0.2171 0.0573 -0.2668 -2.0245 -0.0424 -0.2694 -2.0192 -0.0378 -1.6215 1.5164 -1.1306 -0.0000 0.0000 -0.0000 9.4172 -0.3381 2.5328 1.1730 -0.7420 11.9581 -69.6031 19.7005 -0.3567 -0.1544 -0.0428 -30.9668 -13.8088 17.6951 13.8688 -1.6569 -7.7087 18.5758 1.3137 2.7066 0.9780 6.4460 -3.6138 -1.9164 -24.2242 0.9039 -2.9875 -19.6019 -0.0588 0.3406 -14.9520 -0.0344 0.2619 -17.6646 0.7021 -3.6066 -31.2300 -0.1471 0.5264 -12.8586 -0.0255 0.2259 -30.4973 1.0660 -4.1190 -14.4475 -0.0321 0.2533 -11.0855 -0.0189 0.1952 -40.2837 1.2796 0.9006 -16.7775 1.1348 -3.6199 -7.7056 -0.0092 0.1361 -5.3418 0.2312 -2.1038 76.8181 21.2168 2.5294 -0.1368 0.0330 27.1212 2.5107 -16.0500 4.4257 3.0549 10.5223 -32.2542 0.0883 1.4621 15.6100 -6.2922 -4.7305 4.9369 6.4164 0.3018 -1.8362 37.2760 -0.4667 -1.3837 9.5820 -0.0319 -0.3803 15.7203 0.5844 -3.4570 26.0200 -0.2316 -1.0022 6.0088 -1.9184 -0.2496 25.5537 0.7676 -0.7867 17.8099 -0.1095 -0.6987 8.2890 -2.2248 -0.3416 35.6122 0.9001 -3.1853 15.2306 -0.0802 -0.6001 6.9618 -0.0168 -0.2769 -10.5366 2.6734 3.1777 22.7156 9.4916 0.6034 -11.1080 3.8059 -3.7573 -0.0844 0.0000 0.0000 -10.2958 -12.8216 -5.6763 16.6777 -4.8030 -0.8883 -4.9876 -3.8730 5.8651 -0.2934 0.0000 0.0000 
-0.1333 95.1002 -0.1630 -0.7703 -0.6499 -1.4343 0.0769 -0.1874 0.0298 -0.1627 -2.0032 -0.0786 -0.1641 -1.9987 -0.0722 -1.6255 1.4397 -1.0341 -0.0000 0.0000 -0.0000 9.4227 -0.4082 2.7279 1.0606 -0.7342 11.7606 -69.3522 20.3366 -0.8581 -0.1534 -0.0422 -30.7552 -13.9377 17.7544 13.4357 -1.6519 -7.7172 18.5354 1.3234 2.7610 1.0119 6.4371 -3.5897 -1.8633 -24.2505 0.9047 -2.9839 -19.8123 -0.0601 0.3441 -14.9382 -0.0343 0.2617 -17.7093 0.7035 -3.6049 -31.4301 -0.1490 0.5294 -13.0763 -0.0263 0.2297 -30.4997 1.0661 -4.1134 -14.5907 -0.0327 0.2557 -11.0788 -0.0189 0.1951 -40.5006 1.2836 0.9178 -17.0078 1.1494 -3.6112 -7.7048 -0.0092 0.1361 -5.0741 0.2721 -1.7239 76.5545 21.1033 2.8401 -0.1365 0.0329 27.0634 2.5370 -16.0612 4.1728 3.1293 10.6441 -32.3481 0.1377 1.3554 15.6990 -6.2935 -4.7554 4.9968 6.5079 0.3051 -1.8794 37.4908 -0.4719 -1.3905 9.5064 -0.0314 -0.3773 15.5252 0.5797 -3.4795 26.5541 -0.2410 -1.0213 6.0296 -1.8557 -0.2501 25.4090 0.7654 -0.8027 18.4700 -0.1177 -0.7237 8.3377 -2.1587 -0.3432 35.4610 0.8992 -3.1945 15.5321 -0.0834 -0.6117 7.0802 -0.0174 -0.2816 -10.6950 2.6645 3.0023 23.2678 9.4733 0.5637 -11.4451 4.0601 -3.4975 -0.0937 0.0000 0.0000 -10.3635 -12.9554 -5.8814 16.6929 -4.6649 -0.9422 -4.8198 -3.6332 6.1063 -0.2831 -0.0000 -0.0000 
